<svg xmlns="http://www.w3.org/2000/svg" viewBox="0 0 1200 630" role="img" aria-labelledby="title desc">
  <title id="title">Volksbühne Worms Open Graph Bild</title>
  <desc id="desc">Titelgrafik mit Logoform und Theaterfarbwelt</desc>
  <defs>
    <linearGradient id="bg" x1="0%" y1="0%" x2="100%" y2="100%">
      <stop offset="0%" stop-color="#132934"/>
      <stop offset="100%" stop-color="#1f404e"/>
    </linearGradient>
    <linearGradient id="curtain" x1="0%" y1="0%" x2="100%" y2="100%">
      <stop offset="0%" stop-color="#d15337"/>
      <stop offset="100%" stop-color="#9f3521"/>
    </linearGradient>
  </defs>
  <rect width="1200" height="630" fill="url(#bg)"/>
  <circle cx="930" cy="120" r="220" fill="#ffffff14"/>
  <circle cx="200" cy="560" r="180" fill="#ffffff0f"/>
  <rect x="85" y="95" width="92" height="92" rx="24" fill="#1f2428"/>
  <path d="M104 114h20v54h-20c6-8 8-18 8-27s-2-19-8-27Zm54 0h-20v54h20c-6-8-8-18-8-27s2-19 8-27Z" fill="url(#curtain)"/>
  <circle cx="131" cy="136" r="6.5" fill="#f8e5cb"/>
  <path d="M115 160c5-7 27-7 32 0" fill="none" stroke="#f8e5cb" stroke-width="4" stroke-linecap="round"/>
  <text x="210" y="150" fill="#f7fbfd" font-size="56" font-family="Manrope, Arial, sans-serif" font-weight="800">Volksbühne Worms</text>
  <text x="210" y="208" fill="#ffd2c7" font-size="36" font-family="Manrope, Arial, sans-serif" font-weight="700">Theater seit 1908</text>
  <rect x="85" y="285" width="1030" height="250" rx="28" fill="#0e1d26"/>
  <text x="130" y="390" fill="#f8e5cb" font-size="64" font-family="Fraunces, Georgia, serif" font-weight="700">Wir sind Theater.</text>
  <text x="130" y="455" fill="#dce9ee" font-size="34" font-family="Manrope, Arial, sans-serif">Spielzeit, Weihnachtsmärchen und Kultur in Worms.</text>
</svg>
